<svg width="67" height="60" viewBox="0 0 67 60" fill="none" xmlns="http://www.w3.org/2000/svg">
<path d="M0 32.2466C0 32.2466 6.74314 32.2466 18.1546 32.2466C29.5661 32.2466 33.197 19.2749 33.197 19.2749C33.197 19.2749 35.9626 15.0755 37 13C38.0374 10.9245 40.4588 2.67098 41.4962 2.15211C42.5336 1.63324 49.2768 2.15205 48.7581 8.37855C48.2394 14.605 43.571 20.7937 44.0897 22.8692C44.6084 24.9447 60.6134 24.9069 62.1695 25.9824C64.3035 27.4573 67.9501 55.0769 60.1695 56.6335C52.389 58.1901 33.197 59.2278 23.8603 55.0769H0" stroke="#BA1310" stroke-width="3"/>
<path d="M19.1914 33.2842V54.5578" stroke="#BA1310" stroke-width="3"/>
<path d="M10.8926 32.7656V54.5582" stroke="#BA1310" stroke-width="3"/>
</svg>
