<svg width="70" height="52" viewBox="0 0 70 52" fill="none" xmlns="http://www.w3.org/2000/svg">
<path d="M65.9998 7.61276C64.6665 9.46327 60.7998 12.6092 55.9998 10.3885C49.9998 7.61276 47.4998 2.61636 41.4998 2.06121C35.4998 1.50605 33.4998 4.83698 28.9998 7.61276C24.4998 10.3885 17.4998 14.2747 20.9998 17.6056C23.7998 20.2703 35.8331 17.2355 41.4998 15.385" stroke="#BA1310" stroke-width="3"/>
<path d="M9.5 7.05762C13.6667 9.27824 22.8 12.7202 26 8.72308" stroke="#BA1310" stroke-width="3"/>
<path d="M1 24.8223L34 44.8078C38.8333 48.3238 48.9 53.5793 50.5 46.4733" stroke="#BA1310" stroke-width="3"/>
<path d="M38.5 37.5908C43.8333 42.7723 55.3 50.9145 58.5 42.0321" stroke="#BA1310" stroke-width="3"/>
<path d="M43 33.1504L54 40.3674C57.6667 42.588 64.9 44.5866 64.5 34.8159" stroke="#BA1310" stroke-width="3"/>
<path d="M69.0001 31.4843L61.0001 34.8152C53.1668 30.559 38.1001 20.7143 40.5001 15.3848" stroke="#BA1310" stroke-width="3"/>
<ellipse cx="8.8333" cy="29.7234" rx="3.5" ry="5.55155" transform="rotate(37.5976 8.8333 29.7234)" fill="#FFF6F5" stroke="#BA1310" stroke-width="3"/>
<ellipse cx="14.6924" cy="36.9865" rx="4" ry="5.55155" transform="rotate(37.5976 14.6924 36.9865)" fill="#FFF6F5" stroke="#BA1310" stroke-width="3"/>
<ellipse cx="22.8427" cy="41.4035" rx="4" ry="5.55155" transform="rotate(37.5976 22.8427 41.4035)" fill="#FFF6F5" stroke="#BA1310" stroke-width="3"/>
<ellipse cx="31.0214" cy="43.4759" rx="3.5" ry="5" transform="rotate(37.5976 31.0214 43.4759)" fill="#FFF6F5" stroke="#BA1310" stroke-width="3"/>
</svg>
