<svg width="24" height="24" viewBox="0 0 24 24" fill="none" xmlns="http://www.w3.org/2000/svg">
<rect x="0.273438" y="0.732422" width="22.929" height="22.9222" rx="6" fill="#FFF6F5"/>
<path fill-rule="evenodd" clip-rule="evenodd" d="M3.05196 0.0126882C3.00031 0.0230613 2.84279 0.0549786 2.70194 0.0836102C1.68108 0.290838 0.687364 1.13519 0.250767 2.16631C-0.0144124 2.7925 0.000142407 2.22226 0.000142407 11.9996C0.000142407 21.777 -0.0144124 21.2068 0.250767 21.833C0.685627 22.86 1.60854 23.6489 2.69982 23.9264C3.08557 24.0245 20.9067 24.0245 21.2924 23.9264C22.5794 23.5992 23.5991 22.5798 23.9264 21.2932C24.0245 20.9076 24.0245 3.09172 23.9264 2.70608C23.6516 1.62634 22.8583 0.691822 21.8558 0.267135C21.2007 -0.0104049 21.945 0.00991888 12.137 0.00151712C7.19186 -0.00275416 3.1036 0.00231506 3.05196 0.0126882ZM20.875 1.43977C21.7182 1.59963 22.3992 2.28041 22.5591 3.1234C22.6253 3.47219 22.6253 20.5271 22.5591 20.8759C22.3992 21.7189 21.7182 22.3997 20.875 22.5595C20.5261 22.6257 3.46616 22.6257 3.11726 22.5595C2.27402 22.3997 1.59305 21.7189 1.43313 20.8759C1.36693 20.5271 1.36693 3.47219 1.43313 3.1234C1.58934 2.29989 2.27449 1.60085 3.0805 1.44263C3.38423 1.38297 20.561 1.3802 20.875 1.43977ZM4.24921 11.9996V16.928L6.49111 16.9272C8.28051 16.9266 8.79937 16.9125 9.06168 16.8575C10.3287 16.5915 11.2902 15.4069 11.2902 14.1118C11.2902 13.4677 11.0055 12.7239 10.5813 12.2599L10.3434 11.9996L10.5813 11.7394C11.0055 11.2754 11.2902 10.5316 11.2902 9.88747C11.2902 8.59243 10.3287 7.40778 9.06168 7.14183C8.79937 7.08678 8.28051 7.0727 6.49111 7.07204L4.24921 7.07124V11.9996ZM13.4046 7.7753V8.47936H16.2217H19.0388V7.7753V7.07124H16.2217H13.4046V7.7753ZM9.0452 8.60369C9.32489 8.73296 9.63054 9.03889 9.75796 9.31723C9.8968 9.62035 9.8968 10.1546 9.75796 10.4577C9.63054 10.736 9.32489 11.042 9.0452 11.1712C8.83772 11.2671 8.74856 11.2728 7.24233 11.2862L5.65773 11.3002V9.88747V8.47471L7.24233 8.48879C8.74856 8.50212 8.83772 8.5078 9.0452 8.60369ZM15.7757 9.91362C15.724 9.92554 15.5665 9.95872 15.4256 9.98735C14.4048 10.1946 13.4111 11.0389 12.9745 12.07C12.7819 12.5249 12.7248 12.8305 12.7248 13.4078C12.7248 13.985 12.7819 14.2906 12.9745 14.7455C13.4094 15.7727 14.3351 16.5637 15.4235 16.8384C15.7919 16.9314 16.686 16.9219 17.0668 16.821C17.2347 16.7766 17.5727 16.6421 17.818 16.5222C18.1982 16.3364 18.3265 16.2412 18.6866 15.8769C18.919 15.6418 19.1453 15.3844 19.1894 15.3047L19.2697 15.1599L18.6988 14.8354C18.0949 14.492 18.0058 14.4523 18.0058 14.527C18.0058 14.5527 17.8983 14.6913 17.7668 14.8351C17.4776 15.1514 16.9942 15.4067 16.5359 15.4852C15.7145 15.6258 14.7864 15.1756 14.3987 14.4485C14.3168 14.2948 14.2498 14.1562 14.2498 14.1404C14.2498 14.1247 15.4887 14.1118 17.0029 14.1118H19.756L19.7292 13.443C19.7018 12.7589 19.6519 12.5004 19.4595 12.0466C19.0434 11.0648 18.1466 10.2889 17.0903 9.99651C16.8525 9.9307 15.9482 9.87367 15.7757 9.91362ZM16.6537 11.3484C17.221 11.4688 17.7866 11.8831 18.0447 12.367C18.1266 12.5207 18.1936 12.6593 18.1936 12.6751C18.1936 12.6908 17.3063 12.7037 16.2217 12.7037C15.1371 12.7037 14.2498 12.6908 14.2498 12.6751C14.2498 12.5595 14.5908 12.0489 14.784 11.8753C15.3182 11.3951 15.9865 11.2068 16.6537 11.3484ZM9.0452 12.828C9.32489 12.9573 9.63054 13.2632 9.75796 13.5416C9.8968 13.8447 9.8968 14.3789 9.75796 14.6821C9.63054 14.9604 9.32489 15.2663 9.0452 15.3956C8.83772 15.4915 8.74856 15.4972 7.24233 15.5105L5.65773 15.5246V14.1118V12.6991L7.24233 12.7131C8.74856 12.7265 8.83772 12.7321 9.0452 12.828Z" fill="#BA1310"/>
</svg>
