<svg width="21" height="15" viewBox="0 0 21 15" fill="none" xmlns="http://www.w3.org/2000/svg">
<rect x="2.19531" y="0.00390625" width="15.8738" height="14.9919" fill="#FFF6F5"/>
<path d="M17.8947 0.00503077H18.5074C18.5482 0.0171048 18.5881 0.030185 18.6289 0.0392405C19.6501 0.277703 20.2852 1.06352 20.2862 2.1039V3.86369C20.2862 7.1277 20.2862 10.3914 20.2862 13.6547C20.2841 14.009 20.1405 14.3482 19.8866 14.599C19.6326 14.8498 19.2887 14.992 18.9291 14.9949C17.8978 14.9949 16.8674 14.9949 15.8361 14.9949C15.6727 14.9949 15.6665 14.9869 15.6635 14.8259V7.52111C15.6635 7.47986 15.6635 7.4376 15.6635 7.39635C15.6635 7.32491 15.6298 7.31787 15.5767 7.35711L15.4858 7.42452C13.7519 8.70638 12.0186 9.98857 10.2861 11.2711C10.2679 11.29 10.2459 11.3051 10.2216 11.3154C10.1973 11.3256 10.1711 11.3309 10.1447 11.3309C10.1182 11.3309 10.092 11.3256 10.0677 11.3154C10.0434 11.3051 10.0214 11.29 10.0032 11.2711C8.26862 9.98388 6.53266 8.69967 4.79534 7.41848C4.75041 7.38528 4.7065 7.31183 4.64931 7.34302C4.59213 7.37421 4.62583 7.45068 4.62583 7.50602C4.62583 9.93692 4.62583 12.3678 4.62583 14.7987C4.62583 14.9929 4.62583 15 4.42874 15H1.39081C1.07088 15.0022 0.759981 14.8956 0.510577 14.6981C0.244143 14.4815 0.0634282 14.1795 0 13.8449V1.75375C0.0142962 1.69338 0.0285923 1.63201 0.0439096 1.57164C0.14379 1.1368 0.388174 0.747268 0.738294 0.46485C1.03789 0.225948 1.39419 0.0659903 1.77374 0H2.40788C2.80743 0.0935844 3.18095 0.273307 3.50154 0.526226C5.66025 2.12939 7.82136 3.73054 9.98484 5.32968C10.0047 5.34988 10.0285 5.36594 10.0549 5.37691C10.0812 5.38788 10.1094 5.39353 10.138 5.39353C10.1666 5.39353 10.1949 5.38788 10.2212 5.37691C10.2475 5.36594 10.2713 5.34988 10.2912 5.32968C12.3948 3.77079 14.4997 2.21491 16.606 0.662059C17.0012 0.372283 17.3954 0.0915613 17.8947 0.00503077Z" fill="#BA1310"/>
</svg>
