<svg width="24" height="24" viewBox="0 0 24 24" fill="none" xmlns="http://www.w3.org/2000/svg">
<rect x="0.523438" y="0.533203" width="22.9571" height="22.9333" rx="10" fill="#FFF6F5"/>
<path d="M0.0134302 11.8751C0.0134302 10.4906 -0.0130287 9.106 0.0134302 7.72364C0.00487274 6.69418 0.141445 5.66863 0.419132 4.67716C0.737455 3.60334 1.3337 2.63227 2.14778 1.86182C3.04429 1.05121 4.14627 0.501527 5.33387 0.272545C6.06022 0.129745 6.79849 0.0560417 7.53878 0.0524239C10.3677 -0.0312221 13.1988 0.0039976 16.0277 0.0304121C16.933 0.0208555 17.8369 0.106439 18.7243 0.285752C19.9606 0.5322 21.0983 1.13261 21.9986 2.0137C22.6284 2.64228 23.1137 3.40016 23.4207 4.23472C23.6491 4.85693 23.7973 5.50563 23.8617 6.16518C23.9731 7.40043 24.0172 8.6408 23.994 9.88083C23.994 11.7849 23.994 13.6889 23.994 15.604C23.9949 16.3963 23.9485 17.1879 23.8551 17.9747C23.7361 19.1232 23.3322 20.224 22.6799 21.1774C22.1995 21.8639 21.5816 22.4433 20.8652 22.879C20.1946 23.2752 19.4619 23.5558 18.6978 23.7088C18.0528 23.8339 17.3988 23.9076 16.7421 23.9289C13.8161 24.061 10.888 23.9664 7.96212 23.9774C7.47924 23.9774 6.98976 23.9444 6.50688 23.9047C5.86965 23.8578 5.23959 23.7404 4.6283 23.5547C3.84754 23.3244 3.11947 22.9438 2.48513 22.4343C1.80794 21.8882 1.25668 21.2027 0.868933 20.4246C0.54957 19.7496 0.326898 19.033 0.207461 18.2961C0.119752 17.6921 0.0682128 17.0835 0.0531186 16.4734C-0.0461022 14.9282 0.0266596 13.4006 0.0134302 11.8751ZM11.9684 21.763H14.5283C15.5475 21.7795 16.5669 21.742 17.5821 21.6507C18.2164 21.5952 18.8351 21.4244 19.4078 21.1466C19.9482 20.8773 20.4209 20.4898 20.7908 20.0131C21.1606 19.5364 21.4182 18.9826 21.5443 18.3929C21.7086 17.6327 21.79 16.8571 21.7869 16.0794C21.82 14.8798 21.82 13.6801 21.8222 12.4783C21.8222 11.4789 21.8222 10.4774 21.8023 9.478C21.8023 8.83085 21.8156 8.18589 21.7648 7.54094C21.7484 6.99852 21.6998 6.45754 21.6193 5.92085C21.4949 5.14351 21.1679 4.41249 20.6712 3.80108C20.0282 3.06995 19.1548 2.57928 18.1951 2.40992C17.4797 2.27704 16.7531 2.21291 16.0255 2.21841C14.3652 2.18319 12.7049 2.1854 11.0446 2.18099C10.2596 2.18099 9.47689 2.18099 8.69194 2.20521C7.63359 2.22722 6.57523 2.22282 5.53452 2.47816C4.83001 2.64382 4.1805 2.98888 3.64932 3.47971C2.88422 4.1907 2.52261 5.102 2.36386 6.10575C2.26252 6.80693 2.21608 7.51493 2.22495 8.22331C2.22495 11.1795 2.13455 14.1358 2.28448 17.0898C2.30574 17.9337 2.51912 18.7617 2.90847 19.5111C3.21284 20.0707 3.64959 20.5475 4.1807 20.9001C4.76878 21.2699 5.42986 21.5086 6.11882 21.6001C6.71796 21.6906 7.32307 21.7363 7.92905 21.7365C9.27624 21.7762 10.6256 21.763 11.9684 21.763V21.763Z" fill="#BA1310"/>
<path d="M11.982 18.1407C8.61292 18.1869 5.83474 15.3936 5.82812 12.0257C5.82813 10.3887 6.4795 8.81882 7.63895 7.66131C8.79841 6.5038 10.371 5.85352 12.0107 5.85352C13.6504 5.85352 15.223 6.5038 16.3824 7.66131C17.5419 8.81882 18.1932 10.3887 18.1932 12.0257C18.191 15.409 15.3666 18.2243 11.982 18.1407ZM8.05508 11.9773C7.9713 14.0992 9.87854 15.9505 12.0063 15.9395C13.0589 15.9225 14.0616 15.4889 14.7939 14.7338C15.5262 13.9788 15.9281 12.9643 15.9112 11.9134C15.8942 10.8626 15.4598 9.86154 14.7035 9.13046C13.9472 8.39938 12.931 7.99817 11.8784 8.0151C9.86972 8.05473 7.98453 9.8289 8.05508 11.9839V11.9773Z" fill="#BA1310"/>
<path d="M18.3905 7.05463C18.198 7.05526 18.0074 7.01747 17.8297 6.94349C17.6521 6.86951 17.4911 6.76084 17.3561 6.62385C17.2212 6.48686 17.115 6.32433 17.0439 6.14579C16.9727 5.96726 16.938 5.77633 16.9419 5.58422C16.937 5.38839 16.9717 5.19359 17.044 5.01146C17.1162 4.82933 17.2245 4.66361 17.3624 4.52422C17.5002 4.38482 17.6648 4.2746 17.8463 4.20016C18.0278 4.12571 18.2225 4.08856 18.4187 4.09093C18.6149 4.0933 18.8086 4.13513 18.9883 4.21394C19.1679 4.29275 19.3298 4.40691 19.4642 4.54959C19.5987 4.69228 19.7029 4.86056 19.7707 5.04438C19.8386 5.2282 19.8686 5.42379 19.8589 5.61944C19.8572 5.81003 19.8178 5.9984 19.743 6.17375C19.6683 6.34911 19.5595 6.50801 19.4231 6.64134C19.2867 6.77467 19.1253 6.8798 18.9481 6.95073C18.7709 7.02165 18.5814 7.05696 18.3905 7.05463V7.05463Z" fill="#BA1310"/>
</svg>
