<svg width="352" height="352" viewBox="0 0 352 352" fill="none" xmlns="http://www.w3.org/2000/svg">
<mask id="path-1-inside-1_497_143" fill="white">
<path d="M176 0.000144895C208.927 0.000143455 241.193 9.2369 269.133 26.6607C297.072 44.0844 319.563 68.9963 334.05 98.5651C348.537 128.134 354.438 161.174 351.084 193.929C347.73 226.685 335.254 257.843 315.075 283.862C294.896 309.88 267.822 329.717 236.931 341.116C206.041 352.516 172.572 355.021 140.328 348.347C108.084 341.673 78.3597 326.089 54.5318 303.364C30.704 280.639 13.7289 251.685 5.53568 219.794L32.0276 212.988C38.9475 239.923 53.2846 264.377 73.4093 283.57C93.534 302.763 118.639 315.926 145.872 321.563C173.104 327.199 201.372 325.083 227.462 315.455C253.552 305.828 276.418 289.074 293.461 267.099C310.504 245.124 321.041 218.808 323.874 191.143C326.707 163.478 321.723 135.573 309.487 110.599C297.252 85.6258 278.256 64.5855 254.659 49.8696C231.062 35.1537 203.81 27.3524 176 27.3524L176 0.000144895Z"/>
</mask>
<path d="M176 0.000144895C208.927 0.000143455 241.193 9.2369 269.133 26.6607C297.072 44.0844 319.563 68.9963 334.05 98.5651C348.537 128.134 354.438 161.174 351.084 193.929C347.73 226.685 335.254 257.843 315.075 283.862C294.896 309.88 267.822 329.717 236.931 341.116C206.041 352.516 172.572 355.021 140.328 348.347C108.084 341.673 78.3597 326.089 54.5318 303.364C30.704 280.639 13.7289 251.685 5.53568 219.794L32.0276 212.988C38.9475 239.923 53.2846 264.377 73.4093 283.57C93.534 302.763 118.639 315.926 145.872 321.563C173.104 327.199 201.372 325.083 227.462 315.455C253.552 305.828 276.418 289.074 293.461 267.099C310.504 245.124 321.041 218.808 323.874 191.143C326.707 163.478 321.723 135.573 309.487 110.599C297.252 85.6258 278.256 64.5855 254.659 49.8696C231.062 35.1537 203.81 27.3524 176 27.3524L176 0.000144895Z" stroke="#BA1310" stroke-width="6" mask="url(#path-1-inside-1_497_143)"/>
<mask id="path-2-inside-2_497_143" fill="white">
<path d="M176 37.8494C201.842 37.8494 227.166 45.0975 249.094 58.7701C271.022 72.4427 288.676 91.9917 300.05 115.196C311.424 138.4 316.061 164.329 313.435 190.037C310.81 215.745 301.026 240.202 285.196 260.627C269.366 281.053 248.124 296.629 223.885 305.586C199.645 314.543 173.379 316.522 148.071 311.298C122.762 306.073 99.4269 293.855 80.7154 276.032C62.0039 258.208 48.6666 235.494 42.2189 210.47L68.3139 203.746C73.5039 223.889 84.2397 242.173 99.3014 256.52C114.363 270.867 133.147 280.702 153.518 284.907C173.89 289.112 195.033 287.519 214.544 280.309C234.056 273.1 251.154 260.562 263.897 244.12C276.639 227.679 284.514 207.993 286.628 187.299C288.741 166.606 285.008 145.734 275.853 127.056C266.698 108.378 252.488 92.6423 234.836 81.6366C217.185 70.6309 196.801 64.7967 176 64.7967L176 37.8494Z"/>
</mask>
<path d="M176 37.8494C201.842 37.8494 227.166 45.0975 249.094 58.7701C271.022 72.4427 288.676 91.9917 300.05 115.196C311.424 138.4 316.061 164.329 313.435 190.037C310.81 215.745 301.026 240.202 285.196 260.627C269.366 281.053 248.124 296.629 223.885 305.586C199.645 314.543 173.379 316.522 148.071 311.298C122.762 306.073 99.4269 293.855 80.7154 276.032C62.0039 258.208 48.6666 235.494 42.2189 210.47L68.3139 203.746C73.5039 223.889 84.2397 242.173 99.3014 256.52C114.363 270.867 133.147 280.702 153.518 284.907C173.89 289.112 195.033 287.519 214.544 280.309C234.056 273.1 251.154 260.562 263.897 244.12C276.639 227.679 284.514 207.993 286.628 187.299C288.741 166.606 285.008 145.734 275.853 127.056C266.698 108.378 252.488 92.6423 234.836 81.6366C217.185 70.6309 196.801 64.7967 176 64.7967L176 37.8494Z" stroke="#BA1310" stroke-width="6" mask="url(#path-2-inside-2_497_143)"/>
<mask id="path-3-inside-3_497_143" fill="white">
<path d="M176 77.2134C192.495 77.2134 208.735 81.2813 223.282 89.0568C237.829 96.8323 250.233 108.075 259.397 121.79C268.561 135.505 274.201 151.268 275.818 167.683C277.435 184.098 274.978 200.659 268.666 215.898C262.354 231.137 252.381 244.584 239.63 255.048C226.88 265.512 211.746 272.67 195.568 275.888C179.39 279.106 162.669 278.285 146.884 273.496C131.1 268.708 116.74 260.101 105.077 248.438L123.776 229.739C132.364 238.327 142.938 244.665 154.561 248.191C166.184 251.717 178.497 252.322 190.409 249.952C202.321 247.583 213.466 242.312 222.854 234.607C232.243 226.901 239.587 216.999 244.235 205.778C248.883 194.557 250.692 182.363 249.501 170.275C248.311 158.188 244.158 146.581 237.41 136.482C230.662 126.383 221.528 118.104 210.816 112.378C200.104 106.653 188.146 103.658 176 103.658L176 77.2134Z"/>
</mask>
<path d="M176 77.2134C192.495 77.2134 208.735 81.2813 223.282 89.0568C237.829 96.8323 250.233 108.075 259.397 121.79C268.561 135.505 274.201 151.268 275.818 167.683C277.435 184.098 274.978 200.659 268.666 215.898C262.354 231.137 252.381 244.584 239.63 255.048C226.88 265.512 211.746 272.67 195.568 275.888C179.39 279.106 162.669 278.285 146.884 273.496C131.1 268.708 116.74 260.101 105.077 248.438L123.776 229.739C132.364 238.327 142.938 244.665 154.561 248.191C166.184 251.717 178.497 252.322 190.409 249.952C202.321 247.583 213.466 242.312 222.854 234.607C232.243 226.901 239.587 216.999 244.235 205.778C248.883 194.557 250.692 182.363 249.501 170.275C248.311 158.188 244.158 146.581 237.41 136.482C230.662 126.383 221.528 118.104 210.816 112.378C200.104 106.653 188.146 103.658 176 103.658L176 77.2134Z" stroke="#BA1310" stroke-width="6" mask="url(#path-3-inside-3_497_143)"/>
<mask id="path-4-inside-4_497_143" fill="white">
<path d="M176 113.549C192.564 113.549 208.448 120.129 220.16 131.841C231.872 143.553 238.452 159.437 238.452 176.001C238.452 192.564 231.872 208.449 220.16 220.16C208.448 231.872 192.564 238.452 176 238.452L176 212.415C185.658 212.415 194.92 208.578 201.749 201.749C208.578 194.92 212.415 185.658 212.415 176.001C212.415 166.343 208.578 157.081 201.749 150.252C194.92 143.423 185.658 139.586 176 139.586L176 113.549Z"/>
</mask>
<path d="M176 113.549C192.564 113.549 208.448 120.129 220.16 131.841C231.872 143.553 238.452 159.437 238.452 176.001C238.452 192.564 231.872 208.449 220.16 220.16C208.448 231.872 192.564 238.452 176 238.452L176 212.415C185.658 212.415 194.92 208.578 201.749 201.749C208.578 194.92 212.415 185.658 212.415 176.001C212.415 166.343 208.578 157.081 201.749 150.252C194.92 143.423 185.658 139.586 176 139.586L176 113.549Z" stroke="#BA1310" stroke-width="6" mask="url(#path-4-inside-4_497_143)"/>
<mask id="path-5-inside-5_497_143" fill="white">
<path d="M176.001 152.912C179.231 152.912 182.431 153.548 185.415 154.785C188.4 156.021 191.112 157.833 193.397 160.118C195.681 162.402 197.494 165.114 198.73 168.099C199.966 171.084 200.603 174.283 200.603 177.514C200.603 180.745 199.966 183.944 198.73 186.929C197.494 189.914 195.681 192.626 193.397 194.91C191.112 197.195 188.4 199.007 185.415 200.243C182.431 201.48 179.231 202.116 176.001 202.116L176.001 177.514L176.001 152.912Z"/>
</mask>
<path d="M176.001 152.912C179.231 152.912 182.431 153.548 185.415 154.785C188.4 156.021 191.112 157.833 193.397 160.118C195.681 162.402 197.494 165.114 198.73 168.099C199.966 171.084 200.603 174.283 200.603 177.514C200.603 180.745 199.966 183.944 198.73 186.929C197.494 189.914 195.681 192.626 193.397 194.91C191.112 197.195 188.4 199.007 185.415 200.243C182.431 201.48 179.231 202.116 176.001 202.116L176.001 177.514L176.001 152.912Z" stroke="#BA1310" stroke-width="6" mask="url(#path-5-inside-5_497_143)"/>
</svg>
