<svg viewBox="0 0 115 46" fill="none" xmlns="http://www.w3.org/2000/svg">
<path d="M12.2646 43.3188C11.9017 43.3188 11.5994 43.2672 11.297 43.1898C10.9947 43.0866 10.7528 42.9576 10.5411 42.777C10.3295 42.5964 10.1481 42.3642 10.0271 42.1062C9.90617 41.8482 9.8457 41.5127 9.8457 41.1773C9.8457 40.8677 9.90617 40.5839 10.0271 40.3001C10.1481 40.0163 10.2992 39.7841 10.5109 39.5776C10.7225 39.3712 10.9947 39.2164 11.2668 39.1132C11.5691 39.01 11.9017 38.9326 12.2646 38.9326C12.5972 38.9326 12.8995 38.9842 13.1716 39.0616C13.4438 39.139 13.6554 39.268 13.8368 39.4228C14.0182 39.5777 14.1694 39.7583 14.2601 39.9647C14.3508 40.1711 14.4113 40.3775 14.4113 40.6097C14.4113 40.6355 14.4113 40.6871 14.4113 40.7387C14.4113 40.7903 14.4113 40.8419 14.4113 40.9193C14.4113 40.9709 14.4113 41.0483 14.3811 41.0999C14.3811 41.1515 14.3811 41.2031 14.3811 41.2031H11.2366C11.2366 41.6418 11.3575 41.9772 11.6296 42.2094C11.9017 42.4416 12.2948 42.5706 12.8088 42.5706C12.96 42.5706 13.1112 42.5706 13.2624 42.5448C13.4135 42.519 13.5345 42.4932 13.6554 42.4674C13.7764 42.4416 13.8671 42.39 13.988 42.3642C14.0787 42.3126 14.1694 42.2868 14.2299 42.261L14.4718 42.132C14.4415 42.2094 14.3811 42.3384 14.3508 42.39C14.2904 42.519 14.2299 42.6222 14.1392 42.7512C13.8368 43.1124 13.4135 43.2672 12.9298 43.3446C12.6879 43.293 12.4762 43.3188 12.2646 43.3188ZM13.0507 40.5839C13.0507 40.4033 13.0507 40.2485 13.0205 40.1195C12.9902 39.9905 12.9298 39.8615 12.8693 39.7583C12.8088 39.6551 12.7181 39.5777 12.5972 39.5261C12.4762 39.4744 12.3553 39.4486 12.2041 39.4486C12.0832 39.4486 11.932 39.4744 11.8413 39.5261C11.7203 39.5777 11.6296 39.6551 11.5389 39.7325C11.4482 39.8357 11.3877 39.9389 11.3273 40.0937C11.2668 40.2227 11.2366 40.4033 11.2366 40.5839H13.0507Z" fill="#2F2B30"/>
<path d="M7.6988 43.061C7.6988 43.061 6.70102 42.803 6.64055 42.0031V37.2041L4.43333 37.2815H4.22168C4.22168 37.2815 5.21946 37.5395 5.27993 38.3394V39.1134L5.31017 39.3972C5.2497 39.3456 5.18922 39.2682 5.09852 39.2166C5.00781 39.165 4.9171 39.1134 4.82639 39.0618C4.73569 39.0102 4.61474 38.9844 4.4938 38.9586C4.37286 38.9328 4.25191 38.9328 4.10073 38.9328C3.7379 38.9328 3.43555 38.9844 3.16342 39.1134C2.8913 39.2424 2.64941 39.3972 2.468 39.6294C2.28658 39.8358 2.1354 40.0938 2.01446 40.3777C1.89352 40.6615 1.86328 40.9711 1.86328 41.3065C1.86328 41.5903 1.89352 41.8741 1.98423 42.1063C2.07493 42.3385 2.19588 42.5708 2.34705 42.7514C2.49823 42.932 2.70988 43.0868 2.92154 43.19C3.16342 43.2932 3.40531 43.3448 3.70767 43.3448C3.79837 43.3448 3.88908 43.3448 4.01003 43.319C4.13097 43.319 4.28215 43.2674 4.40309 43.2416C4.55427 43.19 4.67522 43.1126 4.82639 43.0352C4.97757 42.932 5.09852 42.803 5.24969 42.6482H5.31017V43.3706L7.6988 43.061ZM5.27993 42.2095C5.2497 42.2869 5.18922 42.3386 5.09852 42.3902C5.03804 42.4418 4.94734 42.4676 4.88687 42.4934C4.79616 42.5192 4.73569 42.545 4.64498 42.545C4.55427 42.545 4.4938 42.5708 4.43333 42.5708C4.22168 42.5708 4.0705 42.5192 3.91932 42.4418C3.76814 42.3643 3.6472 42.2611 3.55649 42.1063C3.46578 41.9773 3.40531 41.7967 3.34484 41.6161C3.3146 41.4355 3.28436 41.2033 3.28436 40.9969C3.28436 40.7905 3.3146 40.6099 3.34484 40.4551C3.37507 40.3003 3.46578 40.1196 3.55649 39.9906C3.6472 39.8616 3.76814 39.7584 3.91932 39.681C4.0705 39.6036 4.22168 39.5778 4.43333 39.5778C4.4938 39.5778 4.55427 39.5778 4.61474 39.5778C4.67521 39.5778 4.76592 39.6036 4.85663 39.6036C4.94734 39.6294 5.00781 39.6294 5.06828 39.6552C5.12875 39.681 5.18922 39.7068 5.24969 39.7326V42.2095H5.27993Z" fill="#2F2B30"/>
<path d="M24.6608 38.2618C24.7515 38.3134 24.8422 38.365 24.9329 38.4166C25.0236 38.4682 25.1446 38.4682 25.2353 38.4682C25.3562 38.4682 25.4772 38.4424 25.5679 38.4166C25.6888 38.3908 25.7795 38.3392 25.84 38.2618C25.9307 38.2102 25.9912 38.1328 26.0516 38.0296C26.1121 37.9522 26.1121 37.849 26.1121 37.7458C26.1121 37.6426 26.0819 37.5652 26.0516 37.4878C26.0214 37.4104 25.9609 37.3588 25.8702 37.3072C25.7795 37.2556 25.6888 37.2298 25.5981 37.2039C25.5074 37.1781 25.3562 37.1523 25.2353 37.1523C25.1143 37.1523 25.0236 37.1781 24.9027 37.2039C24.812 37.2298 24.7213 37.2814 24.6306 37.333C24.5399 37.3846 24.4794 37.462 24.4491 37.5394C24.4189 37.6168 24.3887 37.72 24.3887 37.7974C24.3887 37.9006 24.4189 37.978 24.4794 38.0554C24.5096 38.1328 24.5701 38.2102 24.6608 38.2618Z" fill="#2F2B30"/>
<path d="M23.5723 43.2161H27.0796C27.0796 43.2161 26.0818 42.9581 26.0214 42.1582V39.0879L23.6025 39.2169C23.6025 39.2169 24.6003 39.4749 24.6608 40.2489V42.1324C24.6003 42.9581 23.5723 43.2161 23.5723 43.2161Z" fill="#2F2B30"/>
<path d="M33.8223 42.7516C33.7014 42.6484 33.52 42.5452 33.2781 42.4678C33.0362 42.3904 32.7641 42.3646 32.4315 42.3646H30.7685C30.708 42.3646 30.6778 42.3388 30.6476 42.313C30.6173 42.2872 30.5569 42.2872 30.5266 42.2614C30.4964 42.2356 30.4662 42.2098 30.4662 42.184C30.4359 42.1582 30.4359 42.1066 30.4359 42.055C30.4359 42.0034 30.4359 41.9776 30.4662 41.926C30.4662 41.8744 30.4964 41.8486 30.5266 41.8228C30.5569 41.797 30.5871 41.7712 30.6173 41.7454C30.6476 41.7196 30.6778 41.6938 30.708 41.6938C30.7987 41.7196 30.8895 41.7454 31.0406 41.7454C31.1918 41.7712 31.343 41.7712 31.5546 41.7712C31.8872 41.7712 32.1896 41.7454 32.4617 41.668C32.7338 41.5906 32.9455 41.5131 33.1269 41.3841C33.3083 41.2551 33.4595 41.1261 33.5502 40.9455C33.6409 40.7649 33.7014 40.5843 33.7014 40.4037C33.7014 40.3263 33.7014 40.2489 33.6712 40.1715C33.6712 40.0941 33.6409 40.0425 33.6107 39.9651C33.5804 39.8877 33.5502 39.8361 33.4897 39.7845C33.4595 39.7329 33.399 39.6813 33.3688 39.6555C33.6107 39.1652 34.4875 39.062 34.4875 39.062L32.7943 39.0362C32.6129 39.0104 32.4315 38.9846 32.2501 38.9588C32.0687 38.933 31.857 38.9072 31.6151 38.9072C31.2825 38.9072 31.0104 38.933 30.7383 39.0104C30.4662 39.0878 30.2545 39.191 30.0731 39.32C29.8917 39.449 29.7405 39.6039 29.6498 39.7845C29.5591 39.9651 29.4986 40.1457 29.4986 40.3779C29.4986 40.5327 29.5288 40.6617 29.5893 40.7907C29.6498 40.9197 29.7103 41.0229 29.801 41.1003C29.8917 41.2035 29.9824 41.2809 30.0731 41.3325C30.1638 41.4099 30.2847 41.4616 30.3754 41.4874V41.5389C30.2847 41.5648 30.1638 41.5906 30.0429 41.6422C29.9219 41.6938 29.8312 41.7454 29.7405 41.797C29.6498 41.8744 29.5893 41.9518 29.5288 42.0292C29.4684 42.1324 29.4381 42.2356 29.4381 42.3388C29.4381 42.442 29.4684 42.5452 29.4986 42.6226C29.5591 42.7 29.6196 42.7774 29.68 42.8548C29.7707 42.9322 29.8614 42.9838 29.9521 43.0096C30.0429 43.0612 30.1638 43.087 30.2545 43.1128V43.1644C30.0731 43.1902 29.9219 43.2418 29.801 43.2934C29.6498 43.345 29.5591 43.3966 29.4684 43.474C29.3777 43.5514 29.287 43.6289 29.2567 43.7321C29.1963 43.8353 29.166 43.9385 29.166 44.0675C29.166 44.2481 29.2265 44.4029 29.3474 44.5319C29.4684 44.6609 29.6196 44.7641 29.8312 44.8673C30.0429 44.9447 30.2847 45.0221 30.5569 45.0737C30.829 45.1253 31.1616 45.1511 31.4942 45.1511C31.8872 45.1511 32.2501 45.0995 32.5827 45.0221C32.9153 44.9447 33.1874 44.8415 33.4293 44.6867C33.6712 44.5577 33.8526 44.3771 34.0037 44.1965C34.1247 43.9901 34.2154 43.7837 34.2154 43.5515C34.2154 43.4224 34.1852 43.2676 34.1247 43.1386C34.0642 43.0096 33.9735 42.8806 33.8223 42.7516ZM30.9499 39.9135C30.9802 39.7845 31.0406 39.6813 31.1011 39.6297C31.1616 39.5523 31.222 39.5007 31.3128 39.4748C31.4035 39.449 31.4942 39.4233 31.5849 39.4233C31.7058 39.4233 31.7965 39.449 31.8872 39.4748C31.9779 39.5007 32.0384 39.5781 32.0989 39.6555C32.1594 39.7329 32.2198 39.8361 32.2501 39.9393C32.2803 40.0683 32.3105 40.1973 32.3105 40.3521C32.3105 40.5069 32.2803 40.6617 32.2501 40.7907C32.2198 40.9197 32.1594 41.0229 32.0989 41.1003C32.0384 41.1777 31.9477 41.2551 31.857 41.2809C31.7663 41.3325 31.6756 41.3325 31.5546 41.3325C31.4337 41.3325 31.343 41.3067 31.2825 41.2809C31.1918 41.2293 31.1313 41.1777 31.0709 41.1003C31.0104 41.0229 30.9802 40.9197 30.9499 40.7907C30.9197 40.6617 30.8895 40.5327 30.8895 40.3521C30.8895 40.1715 30.8895 40.0425 30.9499 39.9135ZM32.8245 44.1965C32.7641 44.2997 32.6431 44.3771 32.5222 44.4287C32.4012 44.4803 32.2803 44.5319 32.1291 44.5577C31.9779 44.5835 31.8268 44.5835 31.7058 44.5835C31.5849 44.5835 31.4639 44.5835 31.343 44.5577C31.2221 44.5319 31.0709 44.5061 30.9499 44.4287C30.829 44.3771 30.708 44.2997 30.6476 44.1965C30.5569 44.0933 30.5266 43.9643 30.5266 43.8353C30.5266 43.7063 30.5569 43.5772 30.5871 43.4998C30.6476 43.4224 30.6778 43.345 30.7383 43.2676H32.1896C32.3105 43.2676 32.4315 43.2934 32.5222 43.3192C32.6129 43.345 32.7036 43.3966 32.7641 43.4482C32.8245 43.4998 32.8548 43.5514 32.885 43.6289C32.9153 43.7063 32.9153 43.7579 32.9153 43.8353C32.9455 43.9901 32.9153 44.0933 32.8245 44.1965Z" fill="#2F2B30"/>
<path d="M40.0814 43.216H42.3794C42.3794 43.216 41.9863 42.958 41.9258 42.2356V40.3263C41.9258 40.0683 41.8956 39.8619 41.8049 39.6813C41.7142 39.5007 41.6235 39.3458 41.4723 39.2426C41.3211 39.1394 41.1699 39.0362 40.9885 38.9846C40.8071 38.933 40.5954 38.9072 40.3838 38.9072C40.2628 38.9072 40.1419 38.9072 40.021 38.933C39.9 38.9588 39.7791 38.9846 39.6279 39.0362C39.5069 39.0878 39.3558 39.1652 39.2348 39.2426C39.1139 39.3458 38.9627 39.449 38.8418 39.6039H38.7813V38.933L36.4531 39.191C36.4531 39.191 37.4811 39.449 37.5114 40.2747V42.184C37.4811 42.958 37.0578 43.216 37.0578 43.216H39.3558C39.3558 43.216 38.9022 42.958 38.9022 42.1066V40.0425C38.9627 39.9651 39.0232 39.9135 39.0836 39.8619C39.1441 39.8103 39.2348 39.7845 39.2953 39.7587C39.386 39.7329 39.4465 39.7329 39.5372 39.7071C39.6279 39.6813 39.6884 39.7071 39.7791 39.7071C39.9605 39.7071 40.0814 39.7329 40.2024 39.7845C40.2931 39.8361 40.3838 39.9135 40.4443 39.9909C40.5047 40.0683 40.535 40.1973 40.5652 40.3263C40.5954 40.4553 40.5954 40.6101 40.5954 40.7907V42.1324C40.535 42.958 40.0814 43.216 40.0814 43.216Z" fill="#2F2B30"/>
<path d="M20.9733 41.0479C20.8523 40.9705 20.7314 40.8931 20.5802 40.8157C20.429 40.7641 20.2476 40.7125 20.0662 40.6609C19.9452 40.6351 19.7941 40.6093 19.6731 40.5835C19.5219 40.5577 19.3708 40.5319 19.2196 40.5061C19.0986 40.4803 18.9777 40.4545 18.887 40.4287C18.7963 40.4029 18.7056 40.3513 18.6451 40.3255C18.5846 40.2739 18.5241 40.2222 18.4939 40.1706C18.4637 40.119 18.4334 40.0416 18.4334 39.9642C18.4334 39.8868 18.4334 39.8352 18.4637 39.7578C18.4939 39.7062 18.5242 39.6546 18.5846 39.603C18.6451 39.5514 18.7056 39.5256 18.766 39.4998C18.8265 39.474 18.9172 39.4482 19.0079 39.4482C19.3405 39.4482 20.3383 39.3192 20.3988 40.3255L21.3361 39.8352C21.1849 39.4482 20.943 39.2418 20.3988 39.087C20.0057 38.958 19.8243 38.8806 19.0684 38.9322C18.7963 38.958 18.6451 38.9838 18.4032 39.0612C18.1311 39.1386 17.9194 39.2418 17.738 39.3708C17.5566 39.4998 17.4054 39.6546 17.3147 39.8352C17.224 40.0158 17.1635 40.1964 17.1938 40.4287C17.1938 40.5577 17.2542 40.6867 17.2845 40.8157C17.345 40.9447 17.4357 41.0479 17.5264 41.1253C17.6171 41.2285 17.7683 41.3059 17.9194 41.3575C18.0706 41.4349 18.252 41.4865 18.4334 41.5123C18.5544 41.5381 18.7056 41.5639 18.8567 41.5897C19.0079 41.6155 19.1591 41.6413 19.3103 41.6671C19.4312 41.6929 19.5219 41.7187 19.6126 41.7445C19.7033 41.7703 19.7941 41.7961 19.8545 41.8477C19.915 41.8993 19.9755 41.9251 20.0057 41.9767C20.0359 42.0283 20.0662 42.1057 20.0662 42.1831C20.0662 42.2605 20.0662 42.3379 20.0359 42.4153C20.0057 42.4928 19.9452 42.5444 19.8848 42.596C19.8243 42.6476 19.7336 42.6992 19.6429 42.725C19.5522 42.7508 19.4615 42.7766 19.3708 42.7766C18.9777 42.7766 17.859 42.7508 17.738 42.1831L17.6775 41.9251L16.7402 42.4153C16.8914 42.8024 17.1938 43.0088 17.7078 43.1894C18.1008 43.3184 18.5241 43.37 19.3103 43.3184C19.5824 43.2926 19.7941 43.2668 20.0359 43.2152C20.3081 43.1378 20.5197 43.0346 20.7314 42.9056C20.943 42.7766 21.0942 42.6218 21.1849 42.4153C21.3058 42.2347 21.3361 42.0025 21.3058 41.7703C21.3058 41.6155 21.2454 41.4865 21.1849 41.3833C21.1547 41.2285 21.064 41.1511 20.9733 41.0479Z" fill="#2F2B30"/>
<path d="M97.5899 15.0928C90.3333 15.0928 84.1954 19.2726 81.9882 25.1037C81.9579 25.1811 81.7765 25.6713 81.716 25.8519C81.1718 27.3742 79.5995 31.3734 78.2087 34.7275C76.4248 25.0263 55.4411 28.8964 55.4411 20.7174V20.5368C55.5923 17.7245 59.2508 15.841 64.1188 15.841H64.3304C66.84 15.841 72.2522 17.5955 72.2522 23.2202C72.2522 23.6588 72.2522 24.0974 72.1918 24.5876L76.9993 22.2139C76.0317 19.4532 73.9454 17.7245 72.0708 16.7699C69.9241 15.712 67.2633 15.0928 64.4211 15.0928C57.2552 15.0928 52.3873 18.2147 52.2663 22.3429V22.5235C52.2663 33.5149 74.5199 30.2639 75.1246 37.0754V37.5657C75.1246 42.1841 68.9263 43.8096 64.9654 43.8096H64.3304C62.6675 43.758 55.4411 43.0613 55.4411 35.6822L55.5016 34.4437L50.4824 36.6884C51.1174 38.6751 52.7803 41.1262 55.1992 42.4937C57.7693 43.8612 61.0347 44.6868 64.3909 44.6868H64.7537C70.68 44.6868 75.941 42.1583 77.6947 38.5461C77.7249 38.5203 77.7249 38.4687 77.7551 38.4429C78.632 36.5078 79.9926 33.1278 81.1113 30.2123C81.202 29.9285 81.2927 29.6963 81.3834 29.4641C81.8672 28.2256 82.2301 27.1936 82.4417 26.5485C82.5022 26.3679 82.6533 25.8777 82.6836 25.8003C84.3163 21.3625 88.1563 17.8793 93.0242 16.486C94.0523 16.1764 95.171 15.9442 96.4107 15.841C96.8642 15.8152 97.1666 15.7894 97.5596 15.7894C103.667 15.7894 108.626 22.0849 108.626 29.8511C108.626 37.5399 103.697 43.9128 97.5596 43.9128C91.5125 43.9128 86.584 37.5399 86.584 29.8511C86.584 24.665 88.7912 20.124 92.0869 17.6987C90.5147 18.3179 89.1541 19.1436 87.9446 20.0724C86.584 21.1045 85.6769 22.2913 84.8606 23.5814C84.1047 24.794 83.5907 26.1357 83.1674 27.3742C82.6534 28.8448 82.3812 29.4383 81.8672 30.8831C81.6858 31.3476 81.5044 31.812 81.323 32.3022C82.6231 39.3201 89.3959 44.661 97.5596 44.661C106.661 44.661 114.099 38.0301 114.099 29.8511C114.129 21.7237 106.691 15.0928 97.5899 15.0928Z" fill="#2F2B30"/>
<path d="M41.5015 25.8774V14.0863V13.9056V7.37793C39.7479 9.18402 37.7221 11.6867 36.4824 13.596V25.8516C36.4824 28.9736 32.5215 29.9798 32.5215 29.9798H45.402C45.402 30.0056 41.5015 28.9994 41.5015 25.8774Z" fill="#2F2B30"/>
<path d="M59.643 4.02356C58.8871 2.57869 56.5287 0.721003 52.4167 0.333984H51.5701C46.6416 0.333984 42.59 3.40433 41.5015 4.7718V0.411389C38.5082 1.85626 32.5215 2.16587 32.5215 2.16587C32.5215 2.16587 36.4824 3.04312 36.4824 6.16507V10.4223C30.3143 18.6787 27.2604 29.0508 17.6757 29.0508L16.7686 28.9992C10.7214 28.5606 5.70229 22.8843 5.70229 15.1955C5.70229 13.6216 5.85347 12.8734 6.12559 11.4543C7.30479 5.64904 11.2052 1.64985 16.7686 1.26283H17.2524C22.8158 1.26283 24.6904 4.33318 24.6904 6.13927L24.6299 6.70689C23.1786 12.4606 7.8188 10.1643 7.51644 19.4785C7.48621 20.6912 7.84904 21.0008 8.2421 22.0586C8.2421 22.0586 8.06069 21.4652 8.06069 20.8976C8.03045 18.9625 8.5747 15.4019 14.773 13.4668C17.6757 12.5638 20.9714 12.538 23.6624 11.6607C26.6557 10.6545 28.742 9.23542 28.742 7.40353V7.22292C28.4699 2.7335 21.4552 0.411389 16.8593 0.411389H16.7988C7.69786 0.411389 0.320312 7.04231 0.320312 15.2213C0.320312 23.4003 7.69786 30.0312 16.7988 30.0312C25.8998 30.0312 29.5886 23.2197 33.5495 16.6662C33.8216 16.176 36.5428 11.4801 40.02 7.55833C41.4713 5.93286 45.2205 1.57245 50.3002 1.44344H50.4513C52.8702 1.44344 55.2588 3.06892 55.2588 6.62949V7.32612L59.643 4.02356Z" fill="#2F2B30"/>
</svg>
