<svg viewBox="0 0 65 30" fill="none" xmlns="http://www.w3.org/2000/svg">
<path d="M7.50886 28.7095C7.30568 28.7095 7.13636 28.6756 6.96704 28.6248C6.79771 28.5571 6.66226 28.4725 6.54373 28.3539C6.42521 28.2354 6.32362 28.083 6.25589 27.9137C6.18816 27.7444 6.1543 27.5243 6.1543 27.3041C6.1543 27.101 6.18816 26.9147 6.25589 26.7285C6.32362 26.5422 6.40828 26.3898 6.5268 26.2544C6.64533 26.1189 6.79772 26.0173 6.9501 25.9496C7.11942 25.8819 7.30568 25.8311 7.50886 25.8311C7.69512 25.8311 7.86444 25.8649 8.01682 25.9157C8.16921 25.9665 8.28774 26.0512 8.38933 26.1528C8.49092 26.2544 8.57558 26.3729 8.62638 26.5083C8.67718 26.6438 8.71104 26.7793 8.71104 26.9316C8.71104 26.9486 8.71104 26.9824 8.71104 27.0163C8.71104 27.0502 8.71104 27.084 8.71104 27.1348C8.71104 27.1687 8.71104 27.2195 8.69411 27.2534C8.69411 27.2872 8.69411 27.3211 8.69411 27.3211H6.93317C6.93317 27.6089 7.0009 27.829 7.15329 27.9814C7.30568 28.1338 7.52579 28.2185 7.81364 28.2185C7.8983 28.2185 7.98296 28.2185 8.06762 28.2015C8.15228 28.1846 8.22001 28.1677 8.28774 28.1508C8.35547 28.1338 8.40626 28.1 8.47399 28.083C8.52479 28.0492 8.57558 28.0322 8.60945 28.0153L8.7449 27.9306C8.72797 27.9814 8.69411 28.0661 8.67718 28.1C8.64331 28.1846 8.60945 28.2523 8.55865 28.337C8.38933 28.5741 8.15228 28.6756 7.88137 28.7264C7.74591 28.6926 7.62739 28.7095 7.50886 28.7095ZM7.9491 26.9147C7.9491 26.7962 7.9491 26.6946 7.93216 26.6099C7.91523 26.5253 7.88137 26.4406 7.8475 26.3729C7.81364 26.3052 7.76284 26.2544 7.69512 26.2205C7.62739 26.1866 7.55966 26.1697 7.475 26.1697C7.40727 26.1697 7.32261 26.1866 7.27181 26.2205C7.20409 26.2544 7.15329 26.3052 7.10249 26.3559C7.0517 26.4237 7.01783 26.4914 6.98397 26.593C6.9501 26.6777 6.93317 26.7962 6.93317 26.9147H7.9491Z" fill="#FFF6F5"/>
<path d="M4.95148 28.5408C4.95148 28.5408 4.39273 28.3715 4.35886 27.8466V24.6973L3.12282 24.7481H3.0043C3.0043 24.7481 3.56305 24.9174 3.59692 25.4423V25.9502L3.61385 26.1365C3.57999 26.1026 3.54612 26.0518 3.49532 26.018C3.44453 25.9841 3.39373 25.9502 3.34294 25.9164C3.29214 25.8825 3.22441 25.8656 3.15668 25.8486C3.08896 25.8317 3.02123 25.8317 2.93657 25.8317C2.73338 25.8317 2.56406 25.8656 2.41167 25.9502C2.25928 26.0349 2.12383 26.1365 2.02224 26.2889C1.92064 26.4243 1.83598 26.5937 1.76825 26.7799C1.70053 26.9662 1.68359 27.1693 1.68359 27.3895C1.68359 27.5757 1.70053 27.762 1.75132 27.9144C1.80212 28.0667 1.86985 28.2191 1.95451 28.3377C2.03917 28.4562 2.15769 28.5578 2.27622 28.6255C2.41167 28.6932 2.54713 28.7271 2.71645 28.7271C2.76725 28.7271 2.81804 28.7271 2.88577 28.7102C2.9535 28.7102 3.03816 28.6763 3.10589 28.6594C3.19055 28.6255 3.25828 28.5747 3.34294 28.5239C3.4276 28.4562 3.49532 28.3715 3.57999 28.2699H3.61385V28.744L4.95148 28.5408ZM3.59692 27.9821C3.57999 28.0329 3.54612 28.0667 3.49532 28.1006C3.46146 28.1345 3.41066 28.1514 3.3768 28.1683C3.326 28.1853 3.29214 28.2022 3.24134 28.2022C3.19055 28.2022 3.15668 28.2191 3.12282 28.2191C3.0043 28.2191 2.91964 28.1853 2.83498 28.1345C2.75031 28.0837 2.68259 28.016 2.63179 27.9144C2.58099 27.8297 2.54713 27.7112 2.51327 27.5927C2.49633 27.4741 2.4794 27.3217 2.4794 27.1863C2.4794 27.0508 2.49633 26.9323 2.51327 26.8307C2.5302 26.7291 2.58099 26.6106 2.63179 26.5259C2.68259 26.4413 2.75031 26.3735 2.83498 26.3227C2.91964 26.2719 3.0043 26.255 3.12282 26.255C3.15668 26.255 3.19055 26.255 3.22441 26.255C3.25828 26.255 3.30907 26.2719 3.35987 26.2719C3.41067 26.2889 3.44453 26.2889 3.47839 26.3058C3.51226 26.3227 3.54612 26.3397 3.57999 26.3566V27.9821H3.59692Z" fill="#FFF6F5"/>
<path d="M14.4493 25.3912C14.5001 25.425 14.5509 25.4589 14.6017 25.4928C14.6524 25.5266 14.7202 25.5266 14.771 25.5266C14.8387 25.5266 14.9064 25.5097 14.9572 25.4928C15.025 25.4758 15.0758 25.442 15.1096 25.3912C15.1604 25.3573 15.1943 25.3065 15.2281 25.2388C15.262 25.188 15.262 25.1203 15.262 25.0525C15.262 24.9848 15.2451 24.934 15.2281 24.8832C15.2112 24.8324 15.1773 24.7985 15.1265 24.7647C15.0757 24.7308 15.025 24.7139 14.9742 24.697C14.9234 24.68 14.8387 24.6631 14.771 24.6631C14.7032 24.6631 14.6524 24.68 14.5847 24.697C14.5339 24.7139 14.4831 24.7477 14.4323 24.7816C14.3815 24.8155 14.3477 24.8663 14.3307 24.9171C14.3138 24.9679 14.2969 25.0356 14.2969 25.0864C14.2969 25.1541 14.3138 25.2049 14.3477 25.2557C14.3646 25.3065 14.3985 25.3573 14.4493 25.3912Z" fill="#FFF6F5"/>
<path d="M13.8398 28.6417H15.804C15.804 28.6417 15.2452 28.4724 15.2113 27.9475V25.9326L13.8568 26.0173C13.8568 26.0173 14.4155 26.1866 14.4494 26.6946V27.9306C14.4155 28.4724 13.8398 28.6417 13.8398 28.6417Z" fill="#FFF6F5"/>
<path d="M19.5802 28.3373C19.5125 28.2696 19.4109 28.2019 19.2754 28.1511C19.14 28.1003 18.9876 28.0833 18.8013 28.0833H17.8701C17.8362 28.0833 17.8193 28.0664 17.8023 28.0495C17.7854 28.0326 17.7515 28.0326 17.7346 28.0156C17.7177 27.9987 17.7007 27.9818 17.7007 27.9648C17.6838 27.9479 17.6838 27.914 17.6838 27.8802C17.6838 27.8463 17.6838 27.8294 17.7007 27.7955C17.7007 27.7616 17.7177 27.7447 17.7346 27.7278C17.7515 27.7108 17.7685 27.6939 17.7854 27.677C17.8023 27.66 17.8193 27.6431 17.8362 27.6431C17.887 27.66 17.9378 27.677 18.0224 27.677C18.1071 27.6939 18.1918 27.6939 18.3103 27.6939C18.4965 27.6939 18.6659 27.677 18.8183 27.6262C18.9706 27.5754 19.0892 27.5246 19.1908 27.4399C19.2923 27.3553 19.377 27.2706 19.4278 27.1521C19.4786 27.0336 19.5125 26.915 19.5125 26.7965C19.5125 26.7457 19.5125 26.6949 19.4955 26.6441C19.4955 26.5933 19.4786 26.5595 19.4617 26.5087C19.4447 26.4579 19.4278 26.424 19.3939 26.3901C19.377 26.3563 19.3431 26.3224 19.3262 26.3055C19.4617 25.9838 19.9527 25.916 19.9527 25.916L19.0045 25.8991C18.9029 25.8822 18.8013 25.8652 18.6997 25.8483C18.5981 25.8314 18.4796 25.8145 18.3442 25.8145C18.1579 25.8145 18.0055 25.8314 17.8531 25.8822C17.7007 25.933 17.5822 26.0007 17.4806 26.0854C17.379 26.17 17.2944 26.2716 17.2436 26.3901C17.1928 26.5087 17.1589 26.6272 17.1589 26.7796C17.1589 26.8812 17.1758 26.9658 17.2097 27.0505C17.2436 27.1352 17.2774 27.2029 17.3282 27.2537C17.379 27.3214 17.4298 27.3722 17.4806 27.4061C17.5314 27.4569 17.5991 27.4907 17.6499 27.5077V27.5415C17.5991 27.5585 17.5314 27.5754 17.4637 27.6092C17.396 27.6431 17.3452 27.677 17.2944 27.7108C17.2436 27.7616 17.2097 27.8124 17.1758 27.8632C17.142 27.931 17.125 27.9987 17.125 28.0664C17.125 28.1341 17.142 28.2019 17.1589 28.2527C17.1928 28.3035 17.2266 28.3543 17.2605 28.4051C17.3113 28.4559 17.3621 28.4897 17.4129 28.5067C17.4637 28.5405 17.5314 28.5574 17.5822 28.5744V28.6082C17.4806 28.6252 17.396 28.659 17.3282 28.6929C17.2436 28.7268 17.1928 28.7606 17.142 28.8114C17.0912 28.8622 17.0404 28.913 17.0235 28.9807C16.9896 29.0485 16.9727 29.1162 16.9727 29.2009C16.9727 29.3194 17.0065 29.421 17.0742 29.5056C17.142 29.5903 17.2266 29.658 17.3452 29.7258C17.4637 29.7766 17.5991 29.8274 17.7515 29.8612C17.9039 29.8951 18.0902 29.912 18.2764 29.912C18.4965 29.912 18.6997 29.8781 18.886 29.8274C19.0722 29.7766 19.2246 29.7088 19.3601 29.6072C19.4955 29.5226 19.5971 29.4041 19.6818 29.2855C19.7495 29.1501 19.8003 29.0146 19.8003 28.8622C19.8003 28.7776 19.7834 28.676 19.7495 28.5913C19.7157 28.5067 19.6649 28.422 19.5802 28.3373ZM17.9716 26.4748C17.9886 26.3901 18.0224 26.3224 18.0563 26.2885C18.0902 26.2378 18.124 26.2039 18.1748 26.187C18.2256 26.17 18.2764 26.1531 18.3272 26.1531C18.395 26.1531 18.4457 26.17 18.4965 26.187C18.5473 26.2039 18.5812 26.2547 18.6151 26.3055C18.6489 26.3563 18.6828 26.424 18.6997 26.4917C18.7167 26.5764 18.7336 26.6611 18.7336 26.7626C18.7336 26.8642 18.7167 26.9658 18.6997 27.0505C18.6828 27.1352 18.6489 27.2029 18.6151 27.2537C18.5812 27.3045 18.5304 27.3553 18.4796 27.3722C18.4288 27.4061 18.378 27.4061 18.3103 27.4061C18.2426 27.4061 18.1918 27.3891 18.1579 27.3722C18.1071 27.3383 18.0732 27.3045 18.0394 27.2537C18.0055 27.2029 17.9886 27.1352 17.9716 27.0505C17.9547 26.9658 17.9378 26.8812 17.9378 26.7626C17.9378 26.6441 17.9378 26.5595 17.9716 26.4748ZM19.0214 29.2855C18.9876 29.3533 18.9198 29.4041 18.8521 29.4379C18.7844 29.4718 18.7167 29.5056 18.632 29.5226C18.5473 29.5395 18.4627 29.5395 18.3949 29.5395C18.3272 29.5395 18.2595 29.5395 18.1918 29.5226C18.124 29.5056 18.0394 29.4887 17.9716 29.4379C17.9039 29.4041 17.8362 29.3533 17.8023 29.2855C17.7515 29.2178 17.7346 29.1331 17.7346 29.0485C17.7346 28.9638 17.7515 28.8792 17.7685 28.8284C17.8023 28.7776 17.8193 28.7268 17.8531 28.676H18.6659C18.7336 28.676 18.8013 28.6929 18.8521 28.7098C18.9029 28.7268 18.9537 28.7606 18.9876 28.7945C19.0214 28.8284 19.0384 28.8622 19.0553 28.913C19.0722 28.9638 19.0722 28.9977 19.0722 29.0485C19.0892 29.1501 19.0722 29.2178 19.0214 29.2855Z" fill="#FFF6F5"/>
<path d="M23.0865 28.6421H24.3734C24.3734 28.6421 24.1533 28.4728 24.1194 27.9987V26.7457C24.1194 26.5764 24.1025 26.4409 24.0517 26.3224C24.0009 26.2039 23.9501 26.1023 23.8654 26.0346C23.7808 25.9668 23.6961 25.8991 23.5945 25.8652C23.4929 25.8314 23.3744 25.8145 23.2559 25.8145C23.1881 25.8145 23.1204 25.8144 23.0527 25.8314C22.9849 25.8483 22.9172 25.8652 22.8326 25.8991C22.7648 25.933 22.6802 25.9838 22.6124 26.0346C22.5447 26.1023 22.4601 26.17 22.3923 26.2716H22.3585V25.8314L21.0547 26.0007C21.0547 26.0007 21.6304 26.17 21.6473 26.7119V27.9648C21.6304 28.4728 21.3933 28.6421 21.3933 28.6421H22.6802C22.6802 28.6421 22.4262 28.4728 22.4262 27.914V26.5595C22.4601 26.5087 22.4939 26.4748 22.5278 26.4409C22.5616 26.4071 22.6124 26.3901 22.6463 26.3732C22.6971 26.3563 22.731 26.3563 22.7818 26.3393C22.8326 26.3224 22.8664 26.3393 22.9172 26.3393C23.0188 26.3393 23.0865 26.3563 23.1543 26.3901C23.2051 26.424 23.2559 26.4748 23.2897 26.5256C23.3236 26.5764 23.3405 26.6611 23.3574 26.7457C23.3744 26.8304 23.3744 26.932 23.3744 27.0505V27.931C23.3405 28.4728 23.0865 28.6421 23.0865 28.6421Z" fill="#FFF6F5"/>
<path d="M12.3842 27.2194C12.3164 27.1686 12.2487 27.1178 12.164 27.067C12.0794 27.0331 11.9778 26.9992 11.8762 26.9654C11.8085 26.9484 11.7238 26.9315 11.6561 26.9146C11.5714 26.8976 11.4868 26.8807 11.4021 26.8638C11.3344 26.8468 11.2666 26.8299 11.2158 26.813C11.1651 26.7961 11.1143 26.7622 11.0804 26.7453C11.0465 26.7114 11.0127 26.6775 10.9957 26.6437C10.9788 26.6098 10.9619 26.559 10.9619 26.5082C10.9619 26.4574 10.9619 26.4235 10.9788 26.3727C10.9957 26.3389 11.0127 26.305 11.0465 26.2712C11.0804 26.2373 11.1143 26.2204 11.1481 26.2034C11.182 26.1865 11.2328 26.1696 11.2836 26.1696C11.4698 26.1696 12.0286 26.0849 12.0625 26.7453L12.5873 26.4235C12.5027 26.1696 12.3672 26.0341 12.0625 25.9325C11.8423 25.8479 11.7407 25.7971 11.3174 25.8309C11.1651 25.8479 11.0804 25.8648 10.9449 25.9156C10.7925 25.9664 10.674 26.0341 10.5724 26.1188C10.4708 26.2034 10.3862 26.305 10.3354 26.4235C10.2846 26.5421 10.2507 26.6606 10.2677 26.813C10.2677 26.8976 10.3015 26.9823 10.3184 27.067C10.3523 27.1516 10.4031 27.2193 10.4539 27.2701C10.5047 27.3379 10.5894 27.3887 10.674 27.4225C10.7587 27.4733 10.8603 27.5072 10.9619 27.5241C11.0296 27.5411 11.1143 27.558 11.1989 27.5749C11.2836 27.5919 11.3682 27.6088 11.4529 27.6257C11.5206 27.6427 11.5714 27.6596 11.6222 27.6765C11.673 27.6935 11.7238 27.7104 11.7577 27.7442C11.7915 27.7781 11.8254 27.795 11.8423 27.8289C11.8593 27.8628 11.8762 27.9136 11.8762 27.9644C11.8762 28.0152 11.8762 28.066 11.8593 28.1167C11.8423 28.1675 11.8085 28.2014 11.7746 28.2353C11.7407 28.2691 11.6899 28.303 11.6392 28.3199C11.5884 28.3369 11.5376 28.3538 11.4868 28.3538C11.2666 28.3538 10.6402 28.3369 10.5724 27.9644L10.5386 27.795L10.0137 28.1167C10.0983 28.3707 10.2677 28.5062 10.5555 28.6247C10.7756 28.7094 11.0127 28.7432 11.4529 28.7094C11.6053 28.6924 11.7238 28.6755 11.8593 28.6416C12.0117 28.5908 12.1302 28.5231 12.2487 28.4385C12.3672 28.3538 12.4519 28.2522 12.5027 28.1167C12.5704 27.9982 12.5873 27.8458 12.5704 27.6934C12.5704 27.5919 12.5365 27.5072 12.5027 27.4395C12.4858 27.3379 12.435 27.2871 12.3842 27.2194Z" fill="#FFF6F5"/>
<path d="M55.2903 10.1865C51.2266 10.1865 47.7894 12.9295 46.5534 16.7562C46.5364 16.807 46.4348 17.1287 46.401 17.2472C46.0962 18.2462 45.2157 20.8707 44.4369 23.0718C43.4379 16.7054 31.687 19.2452 31.687 13.8777V13.7592C31.7717 11.9136 33.8205 10.6776 36.5465 10.6776H36.665C38.0704 10.6776 41.1012 11.8289 41.1012 15.5201C41.1012 15.808 41.1012 16.0958 41.0674 16.4175L43.7596 14.8598C43.2178 13.048 42.0494 11.9136 40.9997 11.2871C39.7975 10.5929 38.3075 10.1865 36.7158 10.1865C32.7029 10.1865 29.9769 12.2353 29.9091 14.9444V15.063C29.9091 22.276 42.3711 20.1426 42.7098 24.6126V24.9344C42.7098 27.9652 39.2387 29.0319 37.0206 29.0319H36.665C35.7338 28.9981 31.687 28.5409 31.687 23.6983L31.7209 22.8856L28.9102 24.3587C29.2657 25.6624 30.197 27.271 31.5516 28.1684C32.9908 29.0658 34.8194 29.6076 36.6989 29.6076H36.9021C40.2208 29.6076 43.167 27.9483 44.149 25.5778C44.1659 25.5608 44.166 25.527 44.1829 25.51C44.6739 24.2401 45.4359 22.022 46.0623 20.1087C46.1131 19.9225 46.1639 19.7701 46.2147 19.6177C46.4856 18.8049 46.6888 18.1277 46.8074 17.7044C46.8412 17.5858 46.9259 17.2641 46.9428 17.2133C47.8571 14.301 50.0075 12.0152 52.7336 11.1009C53.3093 10.8977 53.9358 10.7453 54.63 10.6776C54.884 10.6606 55.0533 10.6437 55.2734 10.6437C58.6937 10.6437 61.4705 14.7751 61.4705 19.8717C61.4705 24.9174 58.7106 29.0996 55.2734 29.0996C51.887 29.0996 49.1271 24.9174 49.1271 19.8717C49.1271 16.4683 50.3631 13.4883 52.2087 11.8967C51.3282 12.303 50.5663 12.8449 49.889 13.4544C49.1271 14.1317 48.6191 14.9106 48.1619 15.7572C47.7386 16.553 47.4508 17.4334 47.2137 18.2462C46.9259 19.2113 46.7735 19.6008 46.4856 20.549C46.3841 20.8537 46.2825 21.1585 46.1809 21.4802C46.9089 26.0857 50.7017 29.5907 55.2734 29.5907C60.3699 29.5907 64.5352 25.2391 64.5352 19.8717C64.5522 14.5381 60.3869 10.1865 55.2903 10.1865Z" fill="#FFF6F5"/>
<path d="M23.8823 17.2633V9.52538V9.40686V5.12305C22.9003 6.30829 21.7658 7.9507 21.0716 9.20368V17.2464C21.0716 19.2952 18.8535 19.9555 18.8535 19.9555H26.0666C26.0666 19.9725 23.8823 19.3121 23.8823 17.2633Z" fill="#FFF6F5"/>
<path d="M34.041 2.92226C33.6177 1.97407 32.297 0.754958 29.9943 0.500977H29.5202C26.7602 0.500977 24.4913 2.51589 23.8818 3.41329V0.551773C22.2055 1.49997 18.853 1.70315 18.853 1.70315C18.853 1.70315 21.0711 2.27884 21.0711 4.32763V7.12142C17.6169 12.5397 15.9068 19.3464 10.5393 19.3464L10.0314 19.3125C6.64494 19.0247 3.83422 15.2996 3.83422 10.2538C3.83422 9.22099 3.91888 8.72996 4.07127 7.7987C4.73162 3.98898 6.91586 1.36451 10.0314 1.11053H10.3023C13.4178 1.11053 14.4676 3.12545 14.4676 4.31069L14.4337 4.6832C13.621 8.45905 5.01946 6.95209 4.85014 13.0646C4.83321 13.8604 5.0364 14.0636 5.25651 14.7578C5.25651 14.7578 5.15492 14.3683 5.15492 13.9958C5.13799 12.7259 5.44277 10.3893 8.91384 9.1194C10.5393 8.52678 12.3849 8.50985 13.8919 7.93416C15.5681 7.27381 16.7365 6.34254 16.7365 5.14037V5.02184C16.5841 2.07566 12.6558 0.551773 10.0822 0.551773H10.0483C4.95174 0.551773 0.820312 4.90331 0.820312 10.2708C0.820312 15.6382 4.95174 19.9898 10.0483 19.9898C15.1448 19.9898 17.2106 15.5197 19.4287 11.219C19.581 10.8973 21.1049 7.81563 23.0521 5.24196C23.8649 4.17524 25.9644 1.31372 28.809 1.22906H28.8937C30.2482 1.22906 31.5859 2.29578 31.5859 4.6324V5.08957L34.041 2.92226Z" fill="#FFF6F5"/>
</svg>
