<svg width="38" height="38" viewBox="0 0 38 38" fill="none" xmlns="http://www.w3.org/2000/svg">
<circle cx="18.53" cy="18.53" r="17.03" stroke="#BA1310" stroke-width="3"/>
<path fill-rule="evenodd" clip-rule="evenodd" d="M12.3361 8.02953C11.8048 8.32115 10.4365 9.52369 9.97558 10.1039C8.6915 11.7209 8.22524 14.0388 8.70772 16.4067C9.1299 18.478 10.3303 20.7857 12.2091 23.1375C14.6517 26.1952 17.0936 28.2527 19.5303 29.3061C22.0625 30.4009 24.8253 30.264 26.8121 28.9451C27.6359 28.3983 28.8696 27.2362 29.0735 26.8149C29.5285 25.8751 29.0252 25.0475 26.9522 23.3263C25.9757 22.5155 25.1903 22.0977 24.5416 22.0439C23.6558 21.9704 23.1907 22.2177 21.8569 23.4712C21.5313 23.7771 21.129 24.0971 20.9627 24.1823C20.0542 24.6479 18.3959 23.71 16.6321 21.7331C14.3399 19.1641 13.5091 17.4303 14.0673 16.3809C14.1573 16.212 14.4448 15.9012 14.7065 15.6903C16.5062 14.2398 16.7728 13.8569 16.7062 12.8188C16.658 12.068 16.2907 11.2357 15.4001 9.85877C14.2193 8.03323 13.314 7.49275 12.3361 8.02953Z" fill="#BA1310"/>
</svg>
