<svg width="21" height="21" viewBox="0 0 21 21" fill="none" xmlns="http://www.w3.org/2000/svg">
<circle cx="10.5" cy="10.5" r="10.5" fill="#FFF6F5"/>
<path fill-rule="evenodd" clip-rule="evenodd" d="M6.3135 3.39916C5.95427 3.59632 5.02911 4.40937 4.7175 4.80168C3.84932 5.89492 3.53408 7.46207 3.86029 9.06307C4.14573 10.4634 4.95735 12.0237 6.22761 13.6138C7.8791 15.6812 9.5301 17.0722 11.1775 17.7845C12.8896 18.5247 14.7575 18.4321 16.1009 17.5404C16.6578 17.1707 17.492 16.385 17.6298 16.1002C17.9374 15.4647 17.5972 14.9052 16.1956 13.7414C15.5354 13.1933 15.0044 12.9108 14.5657 12.8744C13.9668 12.8247 13.6524 12.9919 12.7506 13.8394C12.5305 14.0463 12.2584 14.2626 12.146 14.3202C11.5318 14.635 10.4106 14.0009 9.21802 12.6643C7.66828 10.9273 7.10658 9.75512 7.48399 9.0456C7.54478 8.9314 7.73921 8.7213 7.91611 8.57867C9.13291 7.59796 9.31315 7.33911 9.26815 6.63722C9.23555 6.12958 8.98724 5.56686 8.38507 4.63592C7.58674 3.40166 6.97468 3.03623 6.3135 3.39916Z" fill="#BA1310"/>
</svg>
