<svg width="35" height="35" viewBox="0 0 35 35" fill="none" xmlns="http://www.w3.org/2000/svg">
<path d="M0 18.0995V16.014C0.0513996 15.5561 0.0908056 15.0982 0.157625 14.642C0.8104 10.2789 2.8167 6.65847 6.2262 3.86981C9.96809 0.806749 14.2959 -0.426366 19.0932 0.129308C22.8831 0.568359 26.1418 2.17707 28.8883 4.8148C30.382 6.24787 31.5927 7.94969 32.4571 9.8313C34.0368 13.1782 34.4675 16.9537 33.6821 20.5709C32.8889 24.3749 30.9751 27.5374 28.0196 30.0551C25.6867 32.0596 22.844 33.377 19.8077 33.8607C19.3057 33.9448 18.7985 33.998 18.2931 34.0648H15.778C15.7164 34.0501 15.654 34.0386 15.5912 34.0305C11.7542 33.7067 8.14 32.091 5.3381 29.447C2.5362 26.803 0.711909 23.2867 0.162765 19.4715C0.0959454 19.0153 0.0531129 18.5574 0 18.0995ZM24.8843 11.4109C24.9254 10.5636 24.617 10.1417 23.5684 10.3201C23.5256 10.3201 23.4845 10.3355 23.4434 10.3458C22.7656 10.5293 22.101 10.7585 21.4542 11.0318C16.7306 12.9064 12.096 14.9901 7.42895 17.0002C7.13755 17.1137 6.87016 17.2813 6.64083 17.4941C6.57968 17.5439 6.53112 17.6075 6.49908 17.6796C6.46705 17.7518 6.45244 17.8304 6.45645 17.9093C6.46045 17.9881 6.48296 18.0649 6.52213 18.1334C6.56131 18.2019 6.61606 18.2602 6.68195 18.3036C6.81508 18.4103 6.96665 18.4917 7.12912 18.5437C8.17615 18.9196 9.24493 19.2317 10.3296 19.4784C11.0091 19.626 11.7193 19.5069 12.3136 19.1457C12.879 18.8198 13.4033 18.4305 13.9447 18.0686C15.8482 16.7978 17.7311 15.4961 19.6638 14.2664C19.7817 14.1723 19.9235 14.1129 20.0733 14.0949C20.1262 14.086 20.1805 14.0934 20.2291 14.1161C20.2777 14.1387 20.3184 14.1756 20.3457 14.2218C20.3768 14.2701 20.3922 14.3269 20.3898 14.3843C20.3873 14.4418 20.3671 14.4971 20.332 14.5425C20.2394 14.6591 20.1452 14.7758 20.0424 14.8855C18.6529 16.3244 17.1623 17.6587 15.7111 19.0325C15.3409 19.3604 14.9972 19.7171 14.6831 20.0993C14.3765 20.5023 14.3987 20.8762 14.7414 21.25C14.866 21.3862 15.0063 21.5071 15.1595 21.6102C16.891 22.7822 18.6238 23.9524 20.3577 25.1209C20.6441 25.3194 20.9675 25.4582 21.3086 25.5291C21.9425 25.656 22.3263 25.4725 22.621 24.8997C22.7885 24.5544 22.904 24.1863 22.9636 23.8072C23.577 20.4886 24.1372 17.1614 24.6118 13.8188C24.7198 13.0041 24.8397 12.2118 24.8843 11.404V11.4109Z" fill="#BA1310"/>
</svg>
