<svg width="37" height="37" viewBox="0 0 37 37" fill="none" xmlns="http://www.w3.org/2000/svg">
<path d="M1.54391 34.1631L1.54373 34.1644C1.51893 34.3497 1.49914 34.5323 1.50548 34.6898C1.51148 34.8388 1.54344 35.0741 1.72838 35.2574C1.91756 35.4449 2.15689 35.4704 2.30992 35.4701C2.46807 35.4697 2.64846 35.4402 2.8282 35.4058L2.83003 35.4054C3.67446 35.2403 4.51996 35.0759 5.36593 34.9115C6.98433 34.5969 8.60443 34.282 10.2219 33.9607L10.222 33.9608L10.2292 33.9592C10.4629 33.9092 10.7066 33.9359 10.9239 34.0356L10.9266 34.0368C14.0782 35.4595 17.5838 35.9024 20.9897 35.3081C25.3173 34.5715 29.2106 32.2349 31.8984 28.761C34.5864 25.2869 35.8726 20.929 35.5024 16.5506C35.1322 12.1722 33.1325 8.09256 29.8993 5.1201C26.667 2.14842 22.4377 0.500065 18.0488 0.501505C15.4421 0.466812 12.8623 1.03217 10.5086 2.15393C8.1538 3.27619 6.08831 4.9253 4.47167 6.97382L4.47166 6.97381L4.46918 6.97701C2.21412 9.88263 0.922359 12.9302 0.587724 16.1045C0.253206 19.2777 0.878648 22.5439 2.40533 25.8829L2.40894 25.8908L2.41284 25.8986C2.54921 26.1714 2.59806 26.4797 2.55266 26.7814L2.55224 26.7843C2.31307 28.4396 2.09093 30.0968 1.86903 31.7523C1.76124 32.5565 1.65351 33.3602 1.54391 34.1631Z" stroke="#BA1310"/>
<path d="M32.2035 17.8568C32.0813 25.4725 26.6415 31.4068 19.2244 32.1061C16.6115 32.3611 13.9811 31.8443 11.6583 30.6196C11.2852 30.4162 10.8503 30.3577 10.4368 30.4553C8.95182 30.761 7.46304 31.0362 5.97426 31.3227C5.37875 31.4374 5.32912 31.3877 5.40929 30.8031C5.61924 29.2364 5.82156 27.6697 6.04297 26.103C6.09487 25.7773 6.02851 25.4439 5.85592 25.163C4.69782 23.1858 4.03728 20.9564 3.93119 18.6669C3.8251 16.3774 4.27664 14.0964 5.24692 12.0204C6.2172 9.94445 7.67713 8.1357 9.50094 6.75001C11.3247 5.36431 13.4578 4.44323 15.7162 4.06609C23.4311 2.69046 31.0621 8.31145 32.0317 16.0952C32.1271 16.7372 32.1615 17.3868 32.2035 17.8568ZM9.65421 13.6535C9.65108 14.8905 9.98926 16.1044 10.6315 17.1614C11.797 19.3742 13.3483 21.3607 15.2123 23.0269C17.1662 24.701 19.5322 25.8212 22.0645 26.2711C22.5763 26.3698 23.103 26.3626 23.6119 26.2498C24.1208 26.1371 24.6013 25.9211 25.0237 25.6154C25.4461 25.3097 25.8014 24.9206 26.0679 24.4721C26.3343 24.0236 26.5061 23.5253 26.5728 23.0078C26.6209 22.856 26.6178 22.6927 26.564 22.5428C26.5102 22.393 26.4087 22.265 26.2751 22.1786C25.1566 21.529 24.0419 20.8679 22.8738 20.3062C22.7078 20.2107 22.5114 20.1832 22.3256 20.2295C22.1399 20.2758 21.9793 20.3923 21.8775 20.5546C21.4957 21.0322 21.0567 21.4717 20.6444 21.934C20.5201 22.0995 20.3392 22.2132 20.1363 22.2534C19.9335 22.2936 19.7229 22.2574 19.545 22.1519C17.1495 21.0249 15.2006 19.1265 14.0098 16.7601C13.9095 16.6072 13.8696 16.4223 13.8978 16.2416C13.926 16.0608 14.0204 15.8969 14.1625 15.7819C14.5733 15.4175 14.9352 15.0014 15.239 14.5438C15.3241 14.4285 15.3815 14.295 15.4066 14.1539C15.4318 14.0127 15.4241 13.8676 15.3841 13.7299C14.9845 12.5657 14.5774 11.4041 14.1625 10.245C14.1246 10.115 14.0598 9.99437 13.9724 9.89102C13.8849 9.78767 13.7767 9.70387 13.6548 9.64505C13.2502 9.48234 12.8083 9.43583 12.3787 9.51076C11.9491 9.58569 11.5489 9.77909 11.2232 10.0692C10.7152 10.5125 10.3112 11.0626 10.04 11.6802C9.7688 12.2978 9.63707 12.9676 9.65421 13.642V13.6535Z" fill="#BA1310"/>
</svg>
